<svg width="39" height="38" viewBox="0 0 39 38" fill="none" xmlns="http://www.w3.org/2000/svg">
<g clip-path="url(#clip0_8_21)">
<path d="M24.407 19C24.407 16.3602 22.2012 14.2189 19.5 14.2189C16.7988 14.2189 14.593 16.3602 14.593 19C14.593 21.6398 16.7988 23.7812 19.5 23.7812C22.2012 23.7812 24.407 21.6398 24.407 19ZM19.5 21.9123C17.8537 21.9123 16.5111 20.6041 16.5111 19C16.5111 17.3959 17.8537 16.0877 19.5 16.0877C21.1463 16.0877 22.4889 17.3959 22.4889 19C22.4889 20.6041 21.1463 21.9123 19.5 21.9123Z" fill="white"/>
<path d="M12.3953 18.0656C11.8678 18.0656 11.4363 18.4861 11.4363 19C11.4363 19.5139 11.8678 19.9344 12.3953 19.9344C12.9228 19.9344 13.3543 19.5139 13.3543 19C13.3543 18.4861 12.9228 18.0656 12.3953 18.0656Z" fill="white"/>
<path d="M8.29547 19C8.29547 19.5139 8.72703 19.9344 9.25449 19.9344C9.78195 19.9344 10.2135 19.5139 10.2135 19C10.2135 18.4861 9.78195 18.0656 9.25449 18.0656C8.72703 18.0656 8.29547 18.4861 8.29547 19Z" fill="white"/>
<path d="M7.07275 19C7.07275 17.1 5.48238 15.5504 3.53238 15.5504C1.58238 15.5504 0 17.1 0 19C0 20.9 1.59037 22.4496 3.54037 22.4496C5.49037 22.4496 7.07275 20.9 7.07275 19ZM3.54037 20.5807C2.64529 20.5807 1.91803 19.8721 1.91803 19C1.91803 18.1279 2.64529 17.4193 3.54037 17.4193C4.43545 17.4193 5.1627 18.1279 5.1627 19C5.1627 19.8721 4.42746 20.5807 3.54037 20.5807Z" fill="white"/>
<path d="M29.7455 19.9344C30.2752 19.9344 30.7045 19.5161 30.7045 19C30.7045 18.4839 30.2752 18.0656 29.7455 18.0656C29.2159 18.0656 28.7865 18.4839 28.7865 19C28.7865 19.5161 29.2159 19.9344 29.7455 19.9344Z" fill="white"/>
<path d="M26.6047 19.9344C27.1322 19.9344 27.5637 19.5139 27.5637 19C27.5637 18.4861 27.1322 18.0656 26.6047 18.0656C26.0772 18.0656 25.6457 18.4861 25.6457 19C25.6457 19.5139 26.0772 19.9344 26.6047 19.9344Z" fill="white"/>
<path d="M35.4596 15.5504C33.5096 15.5504 31.9193 17.1 31.9193 19C31.9193 20.9 33.5096 22.4496 35.4596 22.4496C37.4096 22.4496 39 20.9 39 19C39 17.1 37.4096 15.5504 35.4596 15.5504ZM35.4596 20.5807C34.5645 20.5807 33.8373 19.8721 33.8373 19C33.8373 18.1279 34.5645 17.4193 35.4596 17.4193C36.3547 17.4193 37.082 18.1279 37.082 19C37.082 19.8721 36.3547 20.5807 35.4596 20.5807Z" fill="white"/>
<path d="M19.5 24.9881C18.9726 24.9881 18.541 25.4086 18.541 25.9225C18.541 26.4365 18.9726 26.857 19.5 26.857C20.0275 26.857 20.459 26.4365 20.459 25.9225C20.459 25.4086 20.0275 24.9881 19.5 24.9881Z" fill="white"/>
<path d="M19.5 28.0484C18.9726 28.0484 18.541 28.4689 18.541 28.9828C18.541 29.4967 18.9726 29.9172 19.5 29.9172C20.0275 29.9172 20.459 29.4967 20.459 28.9828C20.459 28.4689 20.0275 28.0484 19.5 28.0484Z" fill="white"/>
<path d="M19.5 31.1086C17.55 31.1086 15.9597 32.6582 15.9597 34.5582C15.9597 36.4582 17.55 38 19.5 38C21.45 38 23.0404 36.4504 23.0404 34.5504C23.0404 32.6504 21.45 31.1086 19.5 31.1086ZM19.5 36.1311C18.6049 36.1311 17.8777 35.4225 17.8777 34.5504C17.8777 33.6783 18.6049 32.9697 19.5 32.9697C20.3951 32.9697 21.1224 33.6783 21.1224 34.5504C21.1224 35.4225 20.3951 36.1311 19.5 36.1311Z" fill="white"/>
<path d="M19.5 13.0119C20.0275 13.0119 20.459 12.5914 20.459 12.0775C20.459 11.5635 20.0275 11.143 19.5 11.143C18.9726 11.143 18.541 11.5635 18.541 12.0775C18.541 12.5914 18.9726 13.0119 19.5 13.0119Z" fill="white"/>
<path d="M19.5 9.95164C20.0297 9.95164 20.459 9.53328 20.459 9.01721C20.459 8.50114 20.0297 8.08279 19.5 8.08279C18.9704 8.08279 18.541 8.50114 18.541 9.01721C18.541 9.53328 18.9704 9.95164 19.5 9.95164Z" fill="white"/>
<path d="M19.5 6.89139C21.45 6.89139 23.0404 5.3418 23.0404 3.4418C23.0404 1.5418 21.45 0 19.5 0C17.55 0 15.9597 1.54959 15.9597 3.44959C15.9597 5.34959 17.55 6.89139 19.5 6.89139ZM19.5 1.86885C20.3951 1.86885 21.1224 2.57746 21.1224 3.44959C21.1224 4.32172 20.3951 5.03033 19.5 5.03033C18.6049 5.03033 17.8777 4.32172 17.8777 3.44959C17.8777 2.57746 18.6049 1.86885 19.5 1.86885Z" fill="white"/>
<path d="M13.8019 23.2361C13.4262 23.602 13.4262 24.1939 13.8019 24.5598C14.1775 24.9258 14.7848 24.9258 15.1605 24.5598C15.5361 24.1939 15.5361 23.602 15.1605 23.2361C14.7769 22.8701 14.1695 22.8701 13.8019 23.2361Z" fill="white"/>
<path d="M12.2594 26.9893C12.7891 26.9893 13.2184 26.571 13.2184 26.0549C13.2184 25.5388 12.7891 25.1205 12.2594 25.1205C11.7298 25.1205 11.3004 25.5388 11.3004 26.0549C11.3004 26.571 11.7298 26.9893 12.2594 26.9893Z" fill="white"/>
<path d="M5.71412 27.5578C4.33154 28.9049 4.33154 31.0853 5.71412 32.4324C7.0967 33.7795 9.33441 33.7795 10.717 32.4324C12.0996 31.0853 12.0996 28.9049 10.717 27.5578C9.33441 26.2184 7.08871 26.2184 5.71412 27.5578ZM9.35838 31.1164C8.72703 31.7316 7.70408 31.7316 7.07273 31.1164C6.44138 30.5012 6.44138 29.5045 7.07273 28.8893C7.70408 28.2742 8.72703 28.2742 9.35838 28.8893C9.98974 29.4967 9.98974 30.5012 9.35838 31.1164Z" fill="white"/>
<path d="M26.7406 12.8795C27.2702 12.8795 27.6996 12.4612 27.6996 11.9451C27.6996 11.429 27.2702 11.0107 26.7406 11.0107C26.2109 11.0107 25.7816 11.429 25.7816 11.9451C25.7816 12.4612 26.2109 12.8795 26.7406 12.8795Z" fill="white"/>
<path d="M24.5268 15.0365C25.0565 15.0365 25.4858 14.6181 25.4858 14.1021C25.4858 13.586 25.0565 13.1676 24.5268 13.1676C23.9972 13.1676 23.5678 13.586 23.5678 14.1021C23.5678 14.6181 23.9972 15.0365 24.5268 15.0365Z" fill="white"/>
<path d="M33.2858 10.4422C34.6684 9.09508 34.6684 6.91475 33.2858 5.56762C31.9033 4.22049 29.6656 4.22049 28.283 5.56762C26.9004 6.91475 26.9004 9.09508 28.283 10.4422C29.6656 11.7893 31.9112 11.7816 33.2858 10.4422ZM29.6416 6.88361C30.2729 6.26844 31.2959 6.26844 31.9272 6.88361C32.5586 7.49877 32.5586 8.49549 31.9272 9.11065C31.2959 9.72582 30.2729 9.72582 29.6416 9.11065C29.0102 8.50328 29.0102 7.49877 29.6416 6.88361Z" fill="white"/>
<path d="M26.7406 26.9893C27.2702 26.9893 27.6996 26.571 27.6996 26.0549C27.6996 25.5388 27.2702 25.1205 26.7406 25.1205C26.2109 25.1205 25.7816 25.5388 25.7816 26.0549C25.7816 26.571 26.2109 26.9893 26.7406 26.9893Z" fill="white"/>
<path d="M23.8476 23.2361C23.472 23.602 23.472 24.1939 23.8476 24.5598C24.2232 24.9258 24.8306 24.9258 25.2062 24.5598C25.5818 24.1939 25.5818 23.602 25.2062 23.2361C24.8306 22.8701 24.2232 22.8701 23.8476 23.2361Z" fill="white"/>
<path d="M28.283 27.5578C26.9004 28.9049 26.9004 31.0853 28.283 32.4324C29.6656 33.7795 31.9033 33.7795 33.2858 32.4324C34.6684 31.0853 34.6684 28.9049 33.2858 27.5578C31.9112 26.2184 29.6656 26.2184 28.283 27.5578ZM31.9352 31.1164C31.3039 31.7316 30.2809 31.7316 29.6496 31.1164C29.0182 30.5012 29.0182 29.5045 29.6496 28.8893C30.2809 28.2742 31.3039 28.2742 31.9352 28.8893C32.5666 29.4967 32.5666 30.5012 31.9352 31.1164Z" fill="white"/>
<path d="M14.4732 15.0365C15.0028 15.0365 15.4322 14.6181 15.4322 14.1021C15.4322 13.586 15.0028 13.1676 14.4732 13.1676C13.9435 13.1676 13.5142 13.586 13.5142 14.1021C13.5142 14.6181 13.9435 15.0365 14.4732 15.0365Z" fill="white"/>
<path d="M12.2594 12.8795C12.7891 12.8795 13.2184 12.4612 13.2184 11.9451C13.2184 11.429 12.7891 11.0107 12.2594 11.0107C11.7298 11.0107 11.3004 11.429 11.3004 11.9451C11.3004 12.4612 11.7298 12.8795 12.2594 12.8795Z" fill="white"/>
<path d="M10.717 10.4422C12.0996 9.09508 12.0996 6.91475 10.717 5.56762C9.33441 4.22049 7.0967 4.22049 5.71412 5.56762C4.33154 6.91475 4.33154 9.09508 5.71412 10.4422C7.08871 11.7816 9.33441 11.7816 10.717 10.4422ZM7.06474 6.88361C7.69609 6.26844 8.71904 6.26844 9.35039 6.88361C9.98174 7.49877 9.98174 8.49549 9.35039 9.11065C8.71904 9.72582 7.69609 9.72582 7.06474 9.11065C6.43338 8.50328 6.43338 7.49877 7.06474 6.88361Z" fill="white"/>
</g>
<defs>
<clipPath id="clip0_8_21">
<rect width="39" height="38" fill="white"/>
</clipPath>
</defs>
</svg>